<svg width="8" height="11" viewBox="0 0 8 11" fill="none" xmlns="http://www.w3.org/2000/svg">
<path d="M6.50001 0.875H1.62501C1.22719 0.875 0.845658 1.03304 0.564354 1.31434C0.283049 1.59564 0.125014 1.97718 0.125014 2.375V10.6161C0.124089 10.6769 0.137634 10.737 0.16453 10.7916C0.191426 10.8461 0.230902 10.8934 0.279701 10.9297C0.347494 10.9789 0.42982 11.004 0.513547 11.001C0.597274 10.998 0.67758 10.967 0.741654 10.913L4.06251 8.11531L7.38337 10.9119C7.44703 10.9655 7.52672 10.9964 7.60989 10.9998C7.69306 11.0031 7.77498 10.9787 7.84275 10.9304C7.89216 10.8942 7.93221 10.8467 7.95957 10.792C7.98692 10.7372 8.00079 10.6766 8.00001 10.6154V2.375C8.00001 1.97718 7.84198 1.59564 7.56067 1.31434C7.27937 1.03304 6.89784 0.875 6.50001 0.875Z" fill="#574200" fill-opacity="0.85"/>
</svg>
