<svg width="96" height="96" viewBox="0 0 96 96" fill="none" xmlns="http://www.w3.org/2000/svg">
<g filter="url(#filter0_f_1_192)">
<circle cx="48" cy="48" r="46" fill="#C1D6E5" fill-opacity="0.5"/>
</g>
<path d="M50.1464 30.9307L32.8704 36.0389L37.0844 42.6679L54.9265 36.1343L50.1464 30.9307Z" fill="#2D576E" fill-opacity="0.75"/>
<path d="M49.421 25.25L26.0436 31.6996C26.0436 31.6996 21.75 31.5789 21.75 36.1394C21.75 38.0215 22.5847 39.4241 22.5847 39.4241L40.3945 69.2109C42.0972 71.9234 45.7136 70.225 45.7136 70.225L73.0233 56.9206L72.0013 55.8837C71.7606 54.6386 71.6206 52.333 73.3111 50.6163C73.3487 50.5778 73.3558 50.5253 73.3759 50.4771L74.25 50.1263L49.421 25.25ZM48.903 27.2082L71.142 49.4893L44.9655 60.4827L27.3281 33.0655L48.903 27.2082ZM39.7628 64.7458L24.0968 38.5413C24.0898 38.5316 23.5 37.4834 23.5 36.1394C23.5 34.4349 24.3347 33.7865 25.1511 33.5599L43.065 61.5039C41.7166 62.0875 40.2099 63.421 39.7628 64.7458ZM71.1105 53.3734C71.0536 53.7759 71.0247 54.1679 71.0309 54.5354L53.103 63.0448L71.0947 55.4095C71.1123 55.5486 71.128 55.6886 71.1499 55.8146L48.168 66.9149L71.331 56.6424L71.345 56.6966L45.7136 68.958C45.7014 68.9659 44.5315 69.588 43.359 69.588C42.2005 69.588 41.4786 68.993 41.1496 67.7698C40.3035 64.6268 45.1108 62.8452 45.1834 62.819L71.7685 51.3171C71.5778 51.6671 71.4456 52.0233 71.3354 52.3785L54.4593 60.3226L71.1105 53.3734Z" fill="#2D576E" fill-opacity="0.75"/>
<defs>
<filter id="filter0_f_1_192" x="0" y="0" width="96" height="96" filterUnits="userSpaceOnUse" color-interpolation-filters="sRGB">
<feFlood flood-opacity="0" result="BackgroundImageFix"/>
<feBlend mode="normal" in="SourceGraphic" in2="BackgroundImageFix" result="shape"/>
<feGaussianBlur stdDeviation="1" result="effect1_foregroundBlur_1_192"/>
</filter>
</defs>
</svg>
