<svg width="126" height="126" viewBox="0 0 126 126" fill="none" xmlns="http://www.w3.org/2000/svg">
<g filter="url(#filter0_f_1_197)">
<circle cx="63" cy="63" r="60" fill="#FFEFDF" fill-opacity="0.9"/>
</g>
<path d="M50.2174 63.0002C49.7331 63.0002 49.2686 63.1926 48.9262 63.5351C48.5837 63.8775 48.3913 64.342 48.3913 64.8263C48.3913 65.3106 48.5837 65.7751 48.9262 66.1176C49.2686 66.46 49.7331 66.6524 50.2174 66.6524C50.7017 66.6524 51.1662 66.46 51.5086 66.1176C51.8511 65.7751 52.0435 65.3106 52.0435 64.8263C52.0435 64.342 51.8511 63.8775 51.5086 63.5351C51.1662 63.1926 50.7017 63.0002 50.2174 63.0002ZM48.3913 72.1307C48.3913 71.6464 48.5837 71.1819 48.9262 70.8394C49.2686 70.497 49.7331 70.3046 50.2174 70.3046C50.7017 70.3046 51.1662 70.497 51.5086 70.8394C51.8511 71.1819 52.0435 71.6464 52.0435 72.1307C52.0435 72.615 51.8511 73.0794 51.5086 73.4219C51.1662 73.7644 50.7017 73.9567 50.2174 73.9567C49.7331 73.9567 49.2686 73.7644 48.9262 73.4219C48.5837 73.0794 48.3913 72.615 48.3913 72.1307ZM55.6957 64.8263C55.6957 64.342 55.888 63.8775 56.2305 63.5351C56.573 63.1926 57.0374 63.0002 57.5217 63.0002H72.1304C72.6147 63.0002 73.0792 63.1926 73.4217 63.5351C73.7641 63.8775 73.9565 64.342 73.9565 64.8263C73.9565 65.3106 73.7641 65.7751 73.4217 66.1176C73.0792 66.46 72.6147 66.6524 72.1304 66.6524H57.5217C57.0374 66.6524 56.573 66.46 56.2305 66.1176C55.888 65.7751 55.6957 65.3106 55.6957 64.8263ZM57.5217 70.3046C57.0374 70.3046 56.573 70.497 56.2305 70.8394C55.888 71.1819 55.6957 71.6464 55.6957 72.1307C55.6957 72.615 55.888 73.0794 56.2305 73.4219C56.573 73.7644 57.0374 73.9567 57.5217 73.9567H72.1304C72.6147 73.9567 73.0792 73.7644 73.4217 73.4219C73.7641 73.0794 73.9565 72.615 73.9565 72.1307C73.9565 71.6464 73.7641 71.1819 73.4217 70.8394C73.0792 70.497 72.6147 70.3046 72.1304 70.3046H57.5217ZM48.3913 33.7828C46.4541 33.7828 44.5962 34.5524 43.2264 35.9222C41.8565 37.2921 41.087 39.15 41.087 41.0872V77.6089C41.087 79.5462 41.8565 81.404 43.2264 82.7739C44.5962 84.1437 46.4541 84.9133 48.3913 84.9133H73.9565C75.8938 84.9133 77.7517 84.1437 79.1215 82.7739C80.4913 81.404 81.2609 79.5462 81.2609 77.6089V53.5557C81.2596 52.1033 80.6816 50.7108 79.6539 49.6844L65.3593 35.3861C64.3323 34.3598 62.9399 33.7831 61.488 33.7828H48.3913ZM44.7391 41.0872C44.7391 40.1186 45.1239 39.1896 45.8088 38.5047C46.4937 37.8198 47.4227 37.435 48.3913 37.435H59.3478V50.2176C59.3478 51.6705 59.925 53.064 60.9524 54.0913C61.9797 55.1187 63.3732 55.6959 64.8261 55.6959H77.6087V77.6089C77.6087 78.5775 77.2239 79.5065 76.539 80.1914C75.8541 80.8763 74.9251 81.2611 73.9565 81.2611H48.3913C47.4227 81.2611 46.4937 80.8763 45.8088 80.1914C45.1239 79.5065 44.7391 78.5775 44.7391 77.6089V41.0872ZM63 50.2176V38.191L76.8527 52.0437H64.8261C64.3418 52.0437 63.8773 51.8513 63.5349 51.5089C63.1924 51.1664 63 50.7019 63 50.2176ZM84.9131 55.6959C85.8817 55.6959 86.8106 56.0807 87.4955 56.7656C88.1804 57.4505 88.5652 58.3794 88.5652 59.3481V77.8281C88.5652 79.7177 88.193 81.5889 87.4699 83.3347C86.7467 85.0805 85.6868 86.6668 84.3506 88.003C83.0144 89.3392 81.4281 90.3991 79.6823 91.1223C77.9365 91.8454 76.0653 92.2176 74.1757 92.2176H52.0435C51.0749 92.2176 50.1459 91.8328 49.461 91.1479C48.7761 90.463 48.3913 89.5341 48.3913 88.5654H73.9565C76.8624 88.5654 79.6492 87.4111 81.704 85.3564C83.7587 83.3016 84.9131 80.5148 84.9131 77.6089V55.6959Z" fill="#C69B5F" fill-opacity="0.9"/>
<defs>
<filter id="filter0_f_1_197" x="0.391304" y="0.391304" width="125.217" height="125.217" filterUnits="userSpaceOnUse" color-interpolation-filters="sRGB">
<feFlood flood-opacity="0" result="BackgroundImageFix"/>
<feBlend mode="normal" in="SourceGraphic" in2="BackgroundImageFix" result="shape"/>
<feGaussianBlur stdDeviation="1.30435" result="effect1_foregroundBlur_1_197"/>
</filter>
</defs>
</svg>
