<svg width="14" height="13" viewBox="0 0 14 13" fill="none" xmlns="http://www.w3.org/2000/svg">
<path d="M1.29033 2.95916C1.47651 2.47793 1.74498 2.04185 2.08069 1.67532C2.41666 1.30769 2.81277 1.01555 3.24749 0.81477C3.69827 0.605747 4.18176 0.498757 4.66988 0.500011C5.35468 0.500011 6.02281 0.709333 6.60343 1.10472C6.74234 1.1993 6.8743 1.30319 6.99931 1.41638C7.12433 1.30319 7.25629 1.1993 7.39519 1.10472C7.97581 0.709333 8.64395 0.500011 9.32875 0.500011C9.82186 0.500011 10.2997 0.605447 10.7511 0.81477C11.1873 1.01634 11.5804 1.30629 11.9179 1.67532C12.2541 2.04143 12.5226 2.47762 12.7083 2.95916C12.9014 3.45999 13 3.99182 13 4.53916C13 5.05549 12.9055 5.59352 12.718 6.14086C12.5611 6.59827 12.336 7.07273 12.0485 7.55185C11.5929 8.31006 10.9664 9.10084 10.1886 9.90246C8.89953 11.2313 7.623 12.1492 7.56882 12.1864L7.23962 12.4221C7.09377 12.526 6.90625 12.526 6.7604 12.4221L6.43119 12.1864C6.37702 12.1476 5.10187 11.2313 3.81145 9.90246C3.03358 9.10084 2.40712 8.31006 1.95151 7.55185C1.66398 7.07273 1.43756 6.59827 1.28199 6.14086C1.09447 5.59352 1.00001 5.05549 1.00001 4.53916C0.998625 3.99182 1.09725 3.45999 1.29033 2.95916Z" fill="#F43249" stroke="#FFF8E0" stroke-width="0.9"/>
</svg>
