<svg width="14" height="14" viewBox="0 0 14 14" fill="none" xmlns="http://www.w3.org/2000/svg">
<path d="M11 4.6C12.1045 4.6 13 3.79411 13 2.8C13 1.80589 12.1045 1 11 1C9.8954 1 8.99997 1.80589 8.99997 2.8C8.99997 3.79411 9.8954 4.6 11 4.6Z" stroke="#332700" stroke-opacity="0.85" stroke-width="1.29412" stroke-linecap="round" stroke-linejoin="round"/>
<path d="M3 8.80007C4.10457 8.80007 5 7.99419 5 7.00007C5 6.00596 4.10457 5.20007 3 5.20007C1.89543 5.20007 1 6.00596 1 7.00007C1 7.99419 1.89543 8.80007 3 8.80007Z" stroke="#332700" stroke-opacity="0.85" stroke-width="1.29412" stroke-linecap="round" stroke-linejoin="round"/>
<path d="M11 13C12.1046 13 13 12.1941 13 11.2C13 10.2059 12.1046 9.40002 11 9.40002C9.89546 9.40002 9.00003 10.2059 9.00003 11.2C9.00003 12.1941 9.89546 13 11 13Z" stroke="#332700" stroke-opacity="0.85" stroke-width="1.29412" stroke-linecap="round" stroke-linejoin="round"/>
<path d="M4.72662 7.90601L9.27996 10.294" stroke="#332700" stroke-opacity="0.85" stroke-width="1.29412" stroke-linecap="round" stroke-linejoin="round"/>
<path d="M9.27329 3.70593L4.72662 6.09393" stroke="#332700" stroke-opacity="0.85" stroke-width="1.29412" stroke-linecap="round" stroke-linejoin="round"/>
</svg>
