<svg width="11" height="12" viewBox="0 0 11 12" fill="none" xmlns="http://www.w3.org/2000/svg">
<path d="M5.1386 1.11228C5.25235 0.762182 5.74765 0.762181 5.8614 1.11228L6.87403 4.22882C6.9249 4.38538 7.0708 4.49139 7.23543 4.49139H10.5123C10.8805 4.49139 11.0335 4.96244 10.7357 5.17882L8.08462 7.10494C7.95144 7.20171 7.89571 7.37323 7.94658 7.52979L8.9592 10.6463C9.07296 10.9964 8.67225 11.2876 8.37444 11.0712L5.72336 9.14506C5.59017 9.04829 5.40983 9.04829 5.27664 9.14506L2.62556 11.0712C2.32775 11.2876 1.92704 10.9964 2.0408 10.6463L3.05342 7.5298C3.10429 7.37323 3.04856 7.20171 2.91538 7.10494L0.264295 5.17882C-0.0335166 4.96244 0.119538 4.49139 0.487652 4.49139H3.76457C3.9292 4.49139 4.0751 4.38538 4.12597 4.22882L5.1386 1.11228Z" fill="#FF8F00"/>
</svg>
